ffmpeg started on 2016-12-01 at 21:28:34
Report written to "Output/x264/results/ffmpeg/old_town_cross_2160p50slow13000k.log"
Command line:
Tools/ffmpeg/ffmpeg -benchmark -y -i Input/y4m/old_town_cross_2160p50.y4m -c:v libx264 -preset slow -b:v 13000k -an Output/x264/encoded/old_town_cross_2160p50slow13000k.mkv
ffmpeg version N-82227-gdb23fde Copyright (c) 2000-2016 the FFmpeg developers
  built with gcc 5.4.0 (Ubuntu 5.4.0-6ubuntu1~16.04.2) 20160609
  configuration: --prefix=/home/jaroslav/ffmpeg_build --pkg-config-flags=--static --extra-cflags=-I/home/jaroslav/ffmpeg_build/include --extra-ldflags=-L/home/jaroslav/ffmpeg_build/lib --bindir=/home/jaroslav/bin --enable-gpl --enable-libass --enable-libfdk-aac --enable-libfreetype --enable-libmp3lame --enable-libopus --enable-libtheora --enable-libvorbis --enable-libvpx --enable-libx264 --enable-libx265 --enable-nvenc --enable-libmfx --enable-libxvid --enable-libgsm --enable-libopencore-amrnb --enable-version3 --enable-nonfree
  libavutil      55. 35.100 / 55. 35.100
  libavcodec     57. 66.101 / 57. 66.101
  libavformat    57. 57.100 / 57. 57.100
  libavdevice    57.  2.100 / 57.  2.100
  libavfilter     6. 66.100 /  6. 66.100
  libswscale      4.  3.100 /  4.  3.100
  libswresample   2.  4.100 /  2.  4.100
  libpostproc    54.  2.100 / 54.  2.100
Input #0, yuv4mpegpipe, from 'Input/y4m/old_town_cross_2160p50.y4m':
  Duration: 00:00:10.00, start: 0.000000, bitrate: 4976642 kb/s
    Stream #0:0: Video: rawvideo (I420 / 0x30323449), yuv420p(progressive), 3840x2160, SAR 1:1 DAR 16:9, 50 fps, 50 tbr, 50 tbn, 50 tbc
[libx264 @ 0x2952120] using SAR=1/1
[libx264 @ 0x2952120] using cpu capabilities: MMX2 SSE2Fast SSSE3 SSE4.2 AVX FMA3 AVX2 LZCNT BMI2
[libx264 @ 0x2952120] profile High, level 5.2
[libx264 @ 0x2952120] 264 - core 148 - H.264/MPEG-4 AVC codec - Copyleft 2003-2016 - http://www.videolan.org/x264.html - options: cabac=1 ref=5 deblock=1:0:0 analyse=0x3:0x113 me=hex subme=8 psy=1 psy_rd=1.00:0.00 mixed_ref=1 me_range=16 chroma_me=1 trellis=2 8x8dct=1 cqm=0 deadzone=21,11 fast_pskip=1 chroma_qp_offset=-2 threads=6 lookahead_threads=1 sliced_threads=0 nr=0 decimate=1 interlaced=0 bluray_compat=0 constrained_intra=0 bframes=3 b_pyramid=2 b_adapt=1 b_bias=0 direct=3 weightb=1 open_gop=0 weightp=2 keyint=250 keyint_min=25 scenecut=40 intra_refresh=0 rc_lookahead=50 rc=abr mbtree=1 bitrate=13000 ratetol=1.0 qcomp=0.60 qpmin=0 qpmax=69 qpstep=4 ip_ratio=1.40 aq=1:1.00
Output #0, matroska, to 'Output/x264/encoded/old_town_cross_2160p50slow13000k.mkv':
  Metadata:
    encoder         : Lavf57.57.100
    Stream #0:0: Video: h264 (libx264) (H264 / 0x34363248), yuv420p, 3840x2160 [SAR 1:1 DAR 16:9], q=-1--1, 13000 kb/s, 50 fps, 1k tbn, 50 tbc
    Metadata:
      encoder         : Lavc57.66.101 libx264
    Side data:
      cpb: bitrate max/min/avg: 0/0/13000000 buffer size: 0 vbv_delay: -1
Stream mapping:
  Stream #0:0 -> #0:0 (rawvideo (native) -> h264 (libx264))
Press [q] to stop, [?] for help
frame=   57 fps= 18 q=0.0 size=       0kB time=00:00:00.00 bitrate=N/A speed=   0x    frame=   62 fps= 13 q=32.0 size=       1kB time=-00:00:00.01 bitrate=N/A speed=N/A    frame=   63 fps= 11 q=31.0 size=       1kB time=00:00:00.00 bitrate=5872.0kbits/s speed=0.000177x    frame=   67 fps= 11 q=34.0 size=       1kB time=00:00:00.08 bitrate=  72.5kbits/s speed=0.0129x    frame=   69 fps= 10 q=48.0 size=       1kB time=00:00:00.12 bitrate=  48.5kbits/s speed=0.0176x    frame=   78 fps= 11 q=47.0 size=       1kB time=00:00:00.30 bitrate=  19.5kbits/s speed=0.0408x    frame=   85 fps= 11 q=43.0 size=       1kB time=00:00:00.44 bitrate=  13.3kbits/s speed=0.0558x    frame=   92 fps= 11 q=43.0 size=       1kB time=00:00:00.58 bitrate=  10.1kbits/s speed=0.0686x    frame=   97 fps= 11 q=41.0 size=       1kB time=00:00:00.68 bitrate=   8.6kbits/s speed=0.0754x    frame=  104 fps= 11 q=40.0 size=       1kB time=00:00:00.82 bitrate=   7.2kbits/s speed=0.0852x    frame=  109 fps= 11 q=39.0 size=       1kB time=00:00:00.92 bitrate=   6.4kbits/s speed=0.0904x    frame=  115 fps= 11 q=39.0 size=       1kB time=00:00:01.04 bitrate=   5.6kbits/s speed=0.097x    frame=  120 fps= 11 q=38.0 size=       1kB time=00:00:01.14 bitrate=   5.1kbits/s speed=0.101x    frame=  123 fps= 10 q=38.0 size=       1kB time=00:00:01.20 bitrate=   4.9kbits/s speed=0.101x    frame=  129 fps= 10 q=37.0 size=       1kB time=00:00:01.32 bitrate=   4.4kbits/s speed=0.105x    frame=  135 fps= 10 q=37.0 size=       1kB time=00:00:01.44 bitrate=   4.1kbits/s speed=0.109x    frame=  139 fps= 10 q=36.0 size=       1kB time=00:00:01.52 bitrate=   3.9kbits/s speed=0.11x    frame=  143 fps=9.9 q=36.0 size=       1kB time=00:00:01.60 bitrate=   3.7kbits/s speed=0.111x    frame=  147 fps=9.7 q=36.0 size=       1kB time=00:00:01.68 bitrate=   3.5kbits/s speed=0.111x    frame=  151 fps=9.6 q=35.0 size=       1kB time=00:00:01.76 bitrate=   3.3kbits/s speed=0.112x    frame=  155 fps=9.5 q=35.0 size=       1kB time=00:00:01.84 bitrate=   3.2kbits/s speed=0.112x    frame=  160 fps=9.5 q=35.0 size=       1kB time=00:00:01.94 bitrate=   3.0kbits/s speed=0.115x    frame=  163 fps=9.3 q=35.0 size=       1kB time=00:00:02.00 bitrate=   2.9kbits/s speed=0.114x    frame=  167 fps=9.2 q=35.0 size=       1kB time=00:00:02.08 bitrate=   2.8kbits/s speed=0.115x    frame=  171 fps=9.1 q=35.0 size=       1kB time=00:00:02.16 bitrate=   2.7kbits/s speed=0.114x    frame=  175 fps=9.0 q=35.0 size=       1kB time=00:00:02.24 bitrate=   2.6kbits/s speed=0.115x    frame=  179 fps=8.9 q=34.0 size=       1kB time=00:00:02.32 bitrate=   2.5kbits/s speed=0.115x    frame=  183 fps=8.8 q=34.0 size=       1kB time=00:00:02.40 bitrate=   2.4kbits/s speed=0.115x    frame=  187 fps=8.7 q=34.0 size=       1kB time=00:00:02.48 bitrate=   2.4kbits/s speed=0.115x    frame=  191 fps=8.6 q=34.0 size=       1kB time=00:00:02.56 bitrate=   2.3kbits/s speed=0.115x    frame=  195 fps=8.6 q=34.0 size=       1kB time=00:00:02.64 bitrate=   2.2kbits/s speed=0.116x    frame=  199 fps=8.4 q=34.0 size=       1kB time=00:00:02.72 bitrate=   2.2kbits/s speed=0.115x    frame=  205 fps=8.4 q=34.0 size=       1kB time=00:00:02.84 bitrate=   2.1kbits/s speed=0.117x    frame=  207 fps=8.2 q=34.0 size=       1kB time=00:00:02.88 bitrate=   2.0kbits/s speed=0.115x    frame=  213 fps=8.3 q=34.0 size=       1kB time=00:00:03.00 bitrate=   2.0kbits/s speed=0.117x    frame=  215 fps=8.1 q=34.0 size=       1kB time=00:00:03.04 bitrate=   1.9kbits/s speed=0.115x    frame=  221 fps=8.1 q=34.0 size=       1kB time=00:00:03.16 bitrate=   1.9kbits/s speed=0.116x    frame=  223 fps=8.0 q=34.0 size=       1kB time=00:00:03.20 bitrate=   1.8kbits/s speed=0.115x    frame=  227 fps=7.9 q=34.0 size=       1kB time=00:00:03.28 bitrate=   1.8kbits/s speed=0.115x    frame=  231 fps=7.9 q=34.0 size=       1kB time=00:00:03.36 bitrate=   1.7kbits/s speed=0.115x    frame=  235 fps=7.8 q=33.0 size=    5188kB time=00:00:03.44 bitrate=12352.2kbits/s speed=0.115x    frame=  240 fps=7.8 q=33.0 size=    5188kB time=00:00:03.54 bitrate=12003.3kbits/s speed=0.116x    frame=  243 fps=7.7 q=33.0 size=    5188kB time=00:00:03.60 bitrate=11803.3kbits/s speed=0.114x    frame=  247 fps=7.7 q=33.0 size=    5188kB time=00:00:03.68 bitrate=11546.8kbits/s speed=0.115x    frame=  251 fps=7.6 q=33.0 size=    5188kB time=00:00:03.76 bitrate=11301.2kbits/s speed=0.114x    frame=  255 fps=7.6 q=33.0 size=    5188kB time=00:00:03.84 bitrate=11065.8kbits/s speed=0.114x    frame=  259 fps=7.5 q=33.0 size=    5188kB time=00:00:03.92 bitrate=10840.0kbits/s speed=0.114x    frame=  263 fps=7.5 q=33.0 size=    5188kB time=00:00:04.00 bitrate=10623.3kbits/s speed=0.114x    frame=  267 fps=7.5 q=33.0 size=    5188kB time=00:00:04.08 bitrate=10415.0kbits/s speed=0.114x    frame=  271 fps=7.4 q=33.0 size=    5188kB time=00:00:04.16 bitrate=10214.8kbits/s speed=0.113x    frame=  273 fps=7.2 q=33.0 size=    5188kB time=00:00:04.20 bitrate=10117.5kbits/s speed=0.111x    frame=  275 fps=7.1 q=33.0 size=    5188kB time=00:00:04.24 bitrate=10022.1kbits/s speed=0.109x    frame=  279 fps=7.1 q=34.0 size=    5188kB time=00:00:04.32 bitrate=9836.6kbits/s speed=0.11x    frame=  280 fps=7.0 q=34.0 size=    5188kB time=00:00:04.34 bitrate=9791.2kbits/s speed=0.108x    frame=  282 fps=6.9 q=34.0 size=    5188kB time=00:00:04.38 bitrate=9701.8kbits/s speed=0.108x    frame=  284 fps=6.9 q=34.0 size=    5188kB time=00:00:04.42 bitrate=9614.1kbits/s speed=0.107x    frame=  287 fps=6.9 q=34.0 size=    5188kB time=00:00:04.48 bitrate=9485.3kbits/s speed=0.107x    frame=  290 fps=6.8 q=34.0 size=    5188kB time=00:00:04.54 bitrate=9360.0kbits/s speed=0.107x    frame=  293 fps=6.8 q=34.0 size=    5188kB time=00:00:04.60 bitrate=9237.9kbits/s speed=0.107x    frame=  295 fps=6.7 q=34.0 size=    5188kB time=00:00:04.64 bitrate=9158.3kbits/s speed=0.106x    frame=  298 fps=6.7 q=34.0 size=    5188kB time=00:00:04.70 bitrate=9041.4kbits/s speed=0.106x    frame=  300 fps=6.7 q=34.0 size=    5188kB time=00:00:04.74 bitrate=8965.2kbits/s speed=0.106x    frame=  303 fps=6.7 q=34.0 size=    5188kB time=00:00:04.80 bitrate=8853.1kbits/s speed=0.106x    frame=  306 fps=6.7 q=35.0 size=    5188kB time=00:00:04.86 bitrate=8743.8kbits/s speed=0.106x    frame=  309 fps=6.6 q=35.0 size=    5188kB time=00:00:04.92 bitrate=8637.2kbits/s speed=0.105x    frame=  312 fps=6.6 q=35.0 size=    7854kB time=00:00:04.98 bitrate=12917.3kbits/s speed=0.105x    frame=  316 fps=6.6 q=35.0 size=    7854kB time=00:00:05.06 bitrate=12713.1kbits/s speed=0.105x    frame=  321 fps=6.6 q=35.0 size=    7854kB time=00:00:05.16 bitrate=12466.8kbits/s speed=0.106x    frame=  324 fps=6.6 q=35.0 size=    7854kB time=00:00:05.22 bitrate=12323.5kbits/s speed=0.106x    frame=  330 fps=6.6 q=35.0 size=    7854kB time=00:00:05.34 bitrate=12046.7kbits/s speed=0.107x    frame=  332 fps=6.6 q=35.0 size=    7854kB time=00:00:05.38 bitrate=11957.1kbits/s speed=0.107x    frame=  336 fps=6.6 q=35.0 size=    7854kB time=00:00:05.46 bitrate=11781.9kbits/s speed=0.107x    frame=  340 fps=6.6 q=35.0 size=    7854kB time=00:00:05.54 bitrate=11611.8kbits/s speed=0.107x    frame=  344 fps=6.6 q=35.0 size=    7854kB time=00:00:05.62 bitrate=11446.6kbits/s speed=0.107x    frame=  348 fps=6.5 q=35.0 size=    7854kB time=00:00:05.70 bitrate=11286.0kbits/s speed=0.107x    frame=  352 fps=6.6 q=34.0 size=    7854kB time=00:00:05.78 bitrate=11129.8kbits/s speed=0.108x    frame=  356 fps=6.5 q=34.0 size=    7854kB time=00:00:05.86 bitrate=10977.9kbits/s speed=0.108x    frame=  362 fps=6.6 q=34.0 size=    7854kB time=00:00:05.98 bitrate=10757.6kbits/s speed=0.109x    frame=  364 fps=6.5 q=34.0 size=    7854kB time=00:00:06.02 bitrate=10686.1kbits/s speed=0.108x    frame=  369 fps=6.6 q=34.0 size=    7854kB time=00:00:06.12 bitrate=10511.6kbits/s speed=0.109x    frame=  372 fps=6.5 q=34.0 size=    7854kB time=00:00:06.18 bitrate=10409.5kbits/s speed=0.109x    frame=  376 fps=6.5 q=34.0 size=    7854kB time=00:00:06.26 bitrate=10276.5kbits/s speed=0.109x    frame=  380 fps=6.5 q=34.0 size=    7854kB time=00:00:06.34 bitrate=10146.9kbits/s speed=0.109x    frame=  384 fps=6.5 q=34.0 size=    7854kB time=00:00:06.42 bitrate=10020.4kbits/s speed=0.109x    frame=  388 fps=6.5 q=34.0 size=    7854kB time=00:00:06.50 bitrate=9897.1kbits/s speed=0.109x    frame=  393 fps=6.5 q=34.0 size=    7854kB time=00:00:06.60 bitrate=9747.2kbits/s speed=0.11x    frame=  396 fps=6.5 q=34.0 size=    7854kB time=00:00:06.66 bitrate=9659.4kbits/s speed=0.109x    frame=  401 fps=6.5 q=34.0 size=    7854kB time=00:00:06.76 bitrate=9516.5kbits/s speed=0.11x    frame=  404 fps=6.5 q=34.0 size=    7854kB time=00:00:06.82 bitrate=9432.8kbits/s speed=0.109x    frame=  408 fps=6.5 q=34.0 size=    7854kB time=00:00:06.90 bitrate=9323.5kbits/s speed=0.11x    frame=  412 fps=6.5 q=34.0 size=    7854kB time=00:00:06.98 bitrate=9216.6kbits/s speed=0.109x    frame=  416 fps=6.5 q=34.0 size=    7854kB time=00:00:07.06 bitrate=9112.2kbits/s speed=0.11x    frame=  420 fps=6.5 q=34.0 size=    7854kB time=00:00:07.14 bitrate=9010.1kbits/s speed=0.11x    frame=  424 fps=6.4 q=34.0 size=    7854kB time=00:00:07.22 bitrate=8910.3kbits/s speed=0.11x    frame=  428 fps=6.4 q=34.0 size=    7854kB time=00:00:07.30 bitrate=8812.7kbits/s speed=0.11x    frame=  432 fps=6.4 q=34.0 size=    7854kB time=00:00:07.38 bitrate=8717.1kbits/s speed=0.11x    frame=  436 fps=6.4 q=34.0 size=    7854kB time=00:00:07.46 bitrate=8623.7kbits/s speed=0.11x    frame=  440 fps=6.4 q=34.0 size=    7854kB time=00:00:07.54 bitrate=8532.2kbits/s speed=0.11x    frame=  444 fps=6.4 q=34.0 size=    7854kB time=00:00:07.62 bitrate=8442.6kbits/s speed=0.11x    frame=  448 fps=6.4 q=34.0 size=    7854kB time=00:00:07.70 bitrate=8354.9kbits/s speed=0.11x    frame=  452 fps=6.4 q=34.0 size=    7854kB time=00:00:07.78 bitrate=8269.0kbits/s speed=0.11x    frame=  456 fps=6.4 q=34.0 size=    7854kB time=00:00:07.86 bitrate=8184.9kbits/s speed=0.11x    frame=  460 fps=6.4 q=34.0 size=    7854kB time=00:00:07.94 bitrate=8102.4kbits/s speed=0.11x    frame=  464 fps=6.4 q=34.0 size=    7854kB time=00:00:08.02 bitrate=8021.6kbits/s speed=0.11x    frame=  468 fps=6.3 q=34.0 size=    7854kB time=00:00:08.10 bitrate=7942.4kbits/s speed=0.11x    frame=  472 fps=6.3 q=34.0 size=    7854kB time=00:00:08.18 bitrate=7864.7kbits/s speed=0.11x    frame=  476 fps=6.3 q=33.0 size=    7854kB time=00:00:08.26 bitrate=7788.6kbits/s speed=0.11x    frame=  480 fps=6.3 q=33.0 size=    7854kB time=00:00:08.34 bitrate=7713.8kbits/s speed=0.11x    frame=  484 fps=6.3 q=33.0 size=   12975kB time=00:00:08.42 bitrate=12622.6kbits/s speed=0.11x    frame=  488 fps=6.3 q=33.0 size=   12975kB time=00:00:08.50 bitrate=12503.9kbits/s speed=0.11x    frame=  492 fps=6.3 q=33.0 size=   12975kB time=00:00:08.58 bitrate=12387.3kbits/s speed=0.11x    frame=  496 fps=6.3 q=33.0 size=   12975kB time=00:00:08.66 bitrate=12272.9kbits/s speed=0.11x    frame=  500 fps=6.3 q=33.0 size=   12975kB time=00:00:08.74 bitrate=12160.5kbits/s speed=0.11x    frame=  500 fps=5.5 q=-1.0 Lsize=   16148kB time=00:00:09.94 bitrate=13307.4kbits/s speed=0.109x    
video:16144kB audio:0kB subtitle:0kB other streams:0kB global headers:0kB muxing overhead: 0.028467%
bench: utime=342.856s
bench: maxrss=2230028kB
[libx264 @ 0x2952120] frame I:3     Avg QP:28.96  size:623037
[libx264 @ 0x2952120] frame P:183   Avg QP:32.57  size: 51685
[libx264 @ 0x2952120] frame B:314   Avg QP:34.65  size: 16570
[libx264 @ 0x2952120] consecutive B-frames: 16.0%  0.8%  0.0% 83.2%
[libx264 @ 0x2952120] mb I  I16..4: 11.3% 75.8% 12.9%
[libx264 @ 0x2952120] mb P  I16..4:  0.0%  0.1%  0.0%  P16..4: 39.7%  3.8%  7.9%  0.0%  0.0%    skip:48.5%
[libx264 @ 0x2952120] mb B  I16..4:  0.0%  0.0%  0.0%  B16..8: 50.2%  0.2%  0.0%  direct: 0.1%  skip:49.4%  L0:48.0% L1:51.9% BI: 0.1%
[libx264 @ 0x2952120] final ratefactor: 26.24
[libx264 @ 0x2952120] 8x8 transform intra:76.0% inter:64.6%
[libx264 @ 0x2952120] direct mvs  spatial:98.7% temporal:1.3%
[libx264 @ 0x2952120] coded y,uvDC,uvAC intra: 92.2% 82.8% 66.3% inter: 5.1% 6.1% 0.1%
[libx264 @ 0x2952120] i16 v,h,dc,p: 14% 25% 13% 48%
[libx264 @ 0x2952120] i8 v,h,dc,ddl,ddr,vr,hd,vl,hu:  5%  8%  2% 14% 18% 14% 18%  9% 12%
[libx264 @ 0x2952120] i4 v,h,dc,ddl,ddr,vr,hd,vl,hu:  2%  2%  1% 20% 20% 14% 18% 10% 14%
[libx264 @ 0x2952120] i8c dc,h,v,p: 45% 27% 15% 13%
[libx264 @ 0x2952120] Weighted P-Frames: Y:0.5% UV:0.0%
[libx264 @ 0x2952120] ref P L0: 57.6% 18.0% 15.0%  4.0%  3.9%  1.5%
[libx264 @ 0x2952120] ref B L0: 76.6% 15.7%  6.6%  1.2%
[libx264 @ 0x2952120] ref B L1: 93.3%  6.7%
[libx264 @ 0x2952120] kb/s:13224.52
